<?xml version="1.0" standalone="no"?>
<!DOCTYPE svg PUBLIC "-//W3C//DTD SVG 20010904//EN"
 "http://www.w3.org/TR/2001/REC-SVG-20010904/DTD/svg10.dtd">
<svg version="1.0" xmlns="http://www.w3.org/2000/svg"
 width="225.000000pt" height="225.000000pt" viewBox="0 0 225.000000 225.000000"
 preserveAspectRatio="xMidYMid meet">

<g transform="translate(0.000000,225.000000) scale(0.100000,-0.100000)"
fill="#000000" stroke="none">
<path d="M430 2232 c-29 -14 -39 -28 -59 -82 -26 -73 -39 -236 -24 -305 9 -36
6 -45 -19 -83 -78 -114 -114 -260 -104 -415 23 -356 177 -569 481 -666 l80
-26 -12 -45 c-6 -25 -12 -66 -12 -92 -1 -26 -6 -50 -12 -54 -6 -3 -44 -6 -84
-6 -96 0 -149 25 -213 100 -181 213 -264 261 -341 196 -26 -21 -31 -33 -31
-68 0 -48 22 -78 74 -100 19 -8 58 -45 93 -87 152 -186 270 -249 445 -237 l68
5 0 -93 c0 -110 9 -138 51 -159 41 -22 92 -12 119 22 19 24 20 39 20 257 0
127 5 247 10 267 5 19 26 58 45 85 61 86 39 165 -51 179 -195 31 -314 78 -394
157 -85 83 -124 179 -139 336 -15 164 10 262 94 375 50 66 52 78 29 169 -15
58 -15 170 0 185 10 10 98 -27 199 -85 l99 -55 116 23 c158 31 325 31 483 0
l116 -23 98 56 c96 55 191 94 202 84 12 -12 5 -166 -10 -215 -19 -63 -15 -78
42 -153 58 -76 82 -147 88 -254 10 -173 -40 -336 -133 -435 -75 -80 -217 -141
-369 -157 -50 -5 -66 -12 -92 -39 -41 -40 -43 -77 -7 -125 60 -79 59 -75 64
-352 l5 -259 34 -30 c28 -25 39 -29 69 -24 20 3 47 17 61 31 l26 25 3 230 c3
204 -4 301 -22 350 -5 12 14 21 82 43 323 102 485 360 470 749 -6 138 -27 212
-92 318 -35 57 -36 58 -25 116 22 116 -14 305 -67 355 -22 21 -35 24 -97 23
-87 -1 -152 -21 -275 -85 l-93 -48 -87 16 c-115 21 -369 21 -475 0 l-77 -16
-105 54 c-153 78 -275 102 -345 67z"/>
</g>
</svg>
