<?xml version="1.0" standalone="no"?>
<!DOCTYPE svg PUBLIC "-//W3C//DTD SVG 20010904//EN"
 "http://www.w3.org/TR/2001/REC-SVG-20010904/DTD/svg10.dtd">
<svg version="1.0" xmlns="http://www.w3.org/2000/svg"
 width="225.000000pt" height="225.000000pt" viewBox="0 0 225.000000 225.000000"
 preserveAspectRatio="xMidYMid meet">

<g transform="translate(0.000000,225.000000) scale(0.100000,-0.100000)"
fill="#000000" stroke="none">
<path d="M252 1958 c-9 -9 -12 -154 -12 -592 l0 -581 -77 -237 c-64 -198 -74
-240 -63 -253 11 -13 123 -15 1025 -15 902 0 1014 2 1025 15 11 13 1 55 -63
253 l-77 237 0 581 c0 438 -3 583 -12 592 -17 17 -1729 17 -1746 0z m1678
-603 l0 -535 -805 0 -805 0 0 535 0 535 805 0 805 0 0 -535z m77 -805 l62
-185 -475 -3 c-262 -1 -686 -1 -944 0 l-469 3 58 176 c32 97 61 181 65 188 5
8 221 10 824 9 l816 -3 63 -185z"/>
<path d="M412 1808 c-17 -17 -17 -889 0 -906 17 -17 1409 -17 1426 0 17 17 17
889 0 906 -17 17 -1409 17 -1426 0z m1368 -453 l0 -385 -655 0 -655 0 0 385 0
385 655 0 655 0 0 -385z"/>
<path d="M1332 1648 c-22 -22 -13 -45 38 -92 52 -49 70 -55 90 -31 17 21 5 48
-45 94 -47 43 -63 49 -83 29z"/>
<path d="M1562 1648 c-22 -22 -13 -45 38 -92 52 -49 70 -55 90 -31 17 21 5 48
-45 94 -47 43 -63 49 -83 29z"/>
<path d="M1486 1494 c-9 -8 -16 -20 -16 -26 0 -16 160 -177 183 -184 26 -8 51
18 43 44 -7 22 -170 182 -185 182 -5 0 -17 -7 -25 -16z"/>
<path d="M481 646 c-9 -11 -10 -20 -1 -35 9 -18 20 -21 70 -21 65 0 88 18 69
53 -13 22 -120 25 -138 3z"/>
<path d="M711 642 c-18 -35 4 -52 69 -52 65 0 88 18 69 53 -14 25 -124 25
-138 -1z"/>
<path d="M941 642 c-18 -35 4 -52 69 -52 65 0 88 18 69 53 -14 25 -124 25
-138 -1z"/>
<path d="M1171 642 c-18 -35 4 -52 69 -52 65 0 88 18 69 53 -14 25 -124 25
-138 -1z"/>
<path d="M1404 646 c-3 -8 -4 -23 -2 -33 3 -15 13 -18 67 -18 49 0 66 4 74 17
8 12 7 21 -2 32 -18 22 -129 23 -137 2z"/>
<path d="M1634 646 c-3 -8 -4 -23 -2 -33 3 -15 13 -18 67 -18 49 0 66 4 74 17
8 12 7 21 -2 32 -18 22 -129 23 -137 2z"/>
<path d="M370 495 c-23 -28 -8 -49 42 -57 76 -13 125 21 86 60 -17 17 -113 15
-128 -3z"/>
<path d="M600 495 c-23 -28 -8 -49 42 -57 76 -13 125 21 86 60 -17 17 -113 15
-128 -3z"/>
<path d="M830 495 c-23 -28 -8 -49 42 -57 76 -13 125 21 86 60 -17 17 -113 15
-128 -3z"/>
<path d="M1060 495 c-23 -28 -8 -49 42 -57 76 -13 125 21 86 60 -17 17 -113
15 -128 -3z"/>
<path d="M1290 495 c-23 -28 -8 -49 42 -57 76 -13 125 21 86 60 -17 17 -113
15 -128 -3z"/>
<path d="M1520 495 c-23 -28 -8 -49 42 -57 76 -13 125 21 86 60 -17 17 -113
15 -128 -3z"/>
<path d="M1750 495 c-22 -27 -3 -52 45 -58 75 -11 121 23 83 61 -17 17 -113
15 -128 -3z"/>
</g>
</svg>
